<?xml version="1.0" standalone="no"?>
<!DOCTYPE svg PUBLIC "-//W3C//DTD SVG 20010904//EN"
 "http://www.w3.org/TR/2001/REC-SVG-20010904/DTD/svg10.dtd">
<svg version="1.0" xmlns="http://www.w3.org/2000/svg"
 width="225.000000pt" height="225.000000pt" viewBox="0 0 225.000000 225.000000"
 preserveAspectRatio="xMidYMid meet">

<g transform="translate(0.000000,225.000000) scale(0.100000,-0.100000)"
fill="#000000" stroke="none">
<path d="M753 1757 l-363 -210 0 -422 0 -422 172 -99 c94 -55 175 -100 178
-102 4 -1 10 14 13 35 20 144 211 1152 222 1173 71 136 275 112 314 -38 5 -20
56 -291 112 -602 56 -311 103 -566 104 -568 1 -1 81 43 178 99 l177 102 0 422
0 422 -362 209 c-199 115 -367 210 -373 211 -5 0 -173 -94 -372 -210z m177
-17 c0 -5 -5 -10 -11 -10 -5 0 -7 5 -4 10 3 6 8 10 11 10 2 0 4 -4 4 -10z
m464 -91 c-3 -5 -10 -7 -15 -3 -5 3 -7 10 -3 15 3 5 10 7 15 3 5 -3 7 -10 3
-15z m-800 -61 c-9 -14 -23 2 -17 18 4 12 8 13 14 3 4 -7 5 -17 3 -21z m1017
-84 c-21 -16 -42 4 -28 27 9 15 11 15 26 0 15 -14 15 -17 2 -27z m-834 -39
c-17 -18 -37 5 -24 27 10 15 12 15 23 0 8 -11 8 -19 1 -27z m637 -46 c-3 -5
-10 -7 -15 -3 -5 3 -7 10 -3 15 3 5 10 7 15 3 5 -3 7 -10 3 -15z m-548 -61
c-4 -28 -9 -55 -12 -60 -3 -4 -43 -8 -89 -8 l-85 0 -2 -222 -3 -223 -57 -3
-58 -3 0 226 0 225 -65 0 -65 0 0 60 0 60 221 0 222 0 -7 -52z m954 -8 l0 -60
-114 0 c-124 0 -146 -8 -146 -54 0 -35 25 -49 95 -57 76 -8 120 -35 146 -93
43 -94 9 -183 -86 -227 -30 -14 -64 -19 -136 -19 -107 0 -103 -3 -114 74 l-7
46 109 0 c118 0 133 6 133 51 0 42 -24 59 -82 59 -123 0 -209 117 -164 225 39
92 88 114 249 115 l117 0 0 -60z m-1330 -144 c0 -3 -4 -8 -10 -11 -5 -3 -10
-1 -10 4 0 6 5 11 10 11 6 0 10 -2 10 -4z m990 -136 c0 -5 -5 -10 -11 -10 -5
0 -7 5 -4 10 3 6 8 10 11 10 2 0 4 -4 4 -10z m-953 -282 c-16 -9 -27 0 -21 17
5 11 9 12 19 2 9 -8 10 -14 2 -19z m1067 -9 c-3 -5 -10 -7 -15 -3 -5 3 -7 10
-3 15 3 5 10 7 15 3 5 -3 7 -10 3 -15z m151 -18 c7 -12 -12 -24 -25 -16 -11 7
-4 25 10 25 5 0 11 -4 15 -9z m-995 -71 c0 -5 -4 -10 -10 -10 -5 0 -10 5 -10
10 0 6 5 10 10 10 6 0 10 -4 10 -10z m-121 -67 c-10 -11 -14 -11 -20 -1 -10
17 -2 28 17 21 11 -4 12 -8 3 -20z m929 -4 c-17 -10 -28 -2 -21 17 4 11 8 12
20 3 11 -10 11 -14 1 -20z"/>
<path d="M953 853 c-13 -2 -25 -14 -28 -26 -13 -60 -65 -357 -65 -373 0 -10
12 -26 28 -35 15 -9 72 -42 127 -74 55 -32 105 -58 110 -58 6 0 55 26 110 58
55 32 112 65 127 74 16 9 28 25 28 36 0 27 -66 385 -72 391 -3 2 -22 5 -44 7
-38 2 -39 1 -55 -48 l-16 -50 -78 0 -78 0 -17 50 c-17 51 -28 58 -77 48z"/>
</g>
</svg>
